<svg xmlns="http://www.w3.org/2000/svg"  viewBox="0 0 24 24" width="24px" height="24px"><path d="M 16 3 C 14.894531 3 14 3.894531 14 5 C 14 6.105469 14.894531 7 16 7 C 17.105469 7 18 6.105469 18 5 C 18 3.894531 17.105469 3 16 3 Z M 7.9375 3.03125 C 7.746094 3.03125 7.582031 3.042969 7.40625 3.09375 C 6.207031 3.492188 5.6875 4.898438 6.1875 6 C 6.488281 6.5 6.992188 6.800781 7.59375 7 C 7.992188 7 8.386719 7.289063 8.6875 7.6875 L 9.1875 8.59375 C 9.585938 9.292969 9.613281 10.113281 9.3125 10.8125 C 8.914063 11.613281 9.007813 12.601563 9.40625 13.5 C 10.304688 15.101563 12.507813 15.511719 13.90625 14.3125 C 14.90625 13.511719 15.210938 12.199219 14.8125 11 C 14.414063 9.898438 13.507813 9.199219 12.40625 9 C 11.605469 8.898438 10.804688 8.386719 10.40625 7.6875 L 10 6.90625 C 9.699219 6.507813 9.707031 6.085938 9.90625 5.6875 C 10.105469 5.085938 10 4.289063 9.5 3.6875 C 9.125 3.238281 8.507813 3.03125 7.9375 3.03125 Z M 4 10 C 2.894531 10 2 10.894531 2 12 C 2 13.105469 2.894531 14 4 14 C 5.105469 14 6 13.105469 6 12 C 6 10.894531 5.105469 10 4 10 Z M 20 10 C 18.894531 10 18 10.894531 18 12 C 18 13.105469 18.894531 14 20 14 C 21.105469 14 22 13.105469 22 12 C 22 10.894531 21.105469 10 20 10 Z M 8 17 C 6.894531 17 6 17.894531 6 19 C 6 20.105469 6.894531 21 8 21 C 9.105469 21 10 20.105469 10 19 C 10 17.894531 9.105469 17 8 17 Z M 16 17 C 14.894531 17 14 17.894531 14 19 C 14 20.105469 14.894531 21 16 21 C 17.105469 21 18 20.105469 18 19 C 18 17.894531 17.105469 17 16 17 Z"/></svg>