<svg xmlns="http://www.w3.org/2000/svg"  viewBox="0 0 24 24" width="24px" height="24px"><path d="M 12 2 C 6.484375 2 2 6.484375 2 12 C 2 17.515625 6.484375 22 12 22 C 17.515625 22 22 17.515625 22 12 C 22 6.484375 17.515625 2 12 2 Z M 12 4 C 13.695313 4 15.265625 4.535156 16.5625 5.4375 C 17.1875 7.175781 16.988281 9.117188 16.96875 9.3125 C 15.109375 5.785156 11.144531 4.863281 8.21875 4.96875 C 9.347656 4.359375 10.628906 4 12 4 Z M 8.8125 6.90625 C 12.539063 6.789063 14.949219 9.183594 16.25 12 C 15.398438 13.875 13.875 15.398438 12 16.25 C 9.054688 14.914063 6.597656 11.910156 7.125 7.125 C 7.710938 7 8.28125 6.921875 8.8125 6.90625 Z M 18.9375 8 C 19.617188 9.175781 20 10.546875 20 12 C 20 16.417969 16.417969 20 12 20 C 10.515625 20 9.132813 19.582031 7.9375 18.875 C 11.351563 18.953125 13.550781 17.726563 14.6875 16.96875 C 15.582031 16.371094 16.277344 15.507813 16.96875 14.6875 C 17.984375 13.480469 19.011719 10.859375 18.9375 8 Z M 5.03125 8.0625 C 4.957031 10.910156 5.855469 14.953125 9.3125 16.96875 C 9.117188 16.988281 7.226563 17.277344 5.46875 16.625 C 4.535156 15.316406 4 13.726563 4 12 C 4 10.570313 4.371094 9.226563 5.03125 8.0625 Z"/></svg>