<svg xmlns="http://www.w3.org/2000/svg"  viewBox="0 0 24 24" width="24px" height="24px"><path d="M 18.78125 6 L 18.21875 7.6875 C 18.824219 8.546875 19.203125 9.585938 19.3125 10.6875 C 19.535156 10.652344 21.269531 10.78125 21.8125 11.03125 L 23 10.46875 L 21 9.9375 L 22.59375 8.5 L 20.34375 8.6875 L 21 6.75 L 19.3125 7.6875 Z M 13.09375 7.09375 C 10.746094 7.09375 8.664063 8.5625 8.0625 10.71875 C 7.664063 10.339844 7.09375 10.09375 6.5 10.09375 C 5.265625 10.09375 4.28125 11.078125 4.28125 12.3125 C 4.28125 12.402344 4.300781 12.519531 4.3125 12.59375 C 4.210938 12.585938 4.105469 12.585938 4 12.59375 C 1.925781 12.75 1 14.34375 1 15.90625 C 1 16.332031 1.039063 16.71875 1.125 17 L 22.6875 17 C 22.882813 16.59375 23 16.136719 23 15.65625 C 23 13.957031 21.386719 12.59375 19.6875 12.59375 C 18.929688 12.59375 18.472656 12.859375 17.9375 13.3125 C 18.035156 12.917969 18.09375 12.515625 18.09375 12.09375 C 18.09375 9.265625 15.917969 7.09375 13.09375 7.09375 Z"/></svg>