<svg xmlns="http://www.w3.org/2000/svg"  viewBox="0 0 24 24" width="24px" height="24px"><path d="M 12 3 C 7.042969 3 3 7.042969 3 12 C 3 12.6875 3.101563 13.355469 3.25 14 L 2 14 C 1.449219 14 1 14.449219 1 15 C 1 15.550781 1.449219 16 2 16 L 3.96875 16 C 5.445313 18.953125 8.480469 21 12 21 C 16.957031 21 21 16.957031 21 12 C 21 11.3125 20.898438 10.644531 20.75 10 L 22 10 C 22.550781 10 23 9.550781 23 9 C 23 8.449219 22.550781 8 22 8 L 20.03125 8 C 18.554688 5.046875 15.519531 3 12 3 Z M 12 5 C 14.382813 5 16.488281 6.1875 17.75 8 L 8 8 C 7.449219 8 7 8.449219 7 9 C 7 9.550781 7.449219 10 8 10 L 18.71875 10 C 18.90625 10.632813 19 11.308594 19 12 C 19 15.878906 15.878906 19 12 19 C 9.617188 19 7.511719 17.8125 6.25 16 L 16 16 C 16.550781 16 17 15.550781 17 15 C 17 14.449219 16.550781 14 16 14 L 5.28125 14 C 5.09375 13.367188 5 12.691406 5 12 C 5 8.121094 8.121094 5 12 5 Z M 8 11 C 7.449219 11 7 11.449219 7 12 C 7 12.550781 7.449219 13 8 13 L 16 13 C 16.550781 13 17 12.550781 17 12 C 17 11.449219 16.550781 11 16 11 Z"/></svg>